<?xml version="1.0" encoding="UTF-8"?>
<svg xmlns="http://www.w3.org/2000/svg" width="420.0mm" height="297.0mm" viewBox="0 0 420.0 297.0">
  <rect x="0.00" y="0.00" width="420.00" height="297.00" fill="#f5e6c8" stroke="none" stroke-width="0.5" rx="0"/>
  <rect x="88.70" y="13.66" width="26.00" height="26.00" fill="#ffffff" stroke="none" stroke-width="0.5" rx="0"/>
  <rect x="88.700" y="13.663" width="3.714" height="3.714" fill="#000000"/>
  <rect x="92.414" y="13.663" width="3.714" height="3.714" fill="#000000"/>
  <rect x="96.129" y="13.663" width="3.714" height="3.714" fill="#000000"/>
  <rect x="99.843" y="13.663" width="3.714" height="3.714" fill="#000000"/>
  <rect x="103.557" y="13.663" width="3.714" height="3.714" fill="#000000"/>
  <rect x="107.271" y="13.663" width="3.714" height="3.714" fill="#000000"/>
  <rect x="110.986" y="13.663" width="3.714" height="3.714" fill="#000000"/>
  <rect x="88.700" y="17.377" width="3.714" height="3.714" fill="#000000"/>
  <rect x="92.414" y="17.377" width="3.714" height="3.714" fill="#000000"/>
  <rect x="96.129" y="17.377" width="3.714" height="3.714" fill="#000000"/>
  <rect x="99.843" y="17.377" width="3.714" height="3.714" fill="#000000"/>
  <rect x="103.557" y="17.377" width="3.714" height="3.714" fill="#000000"/>
  <rect x="107.271" y="17.377" width="3.714" height="3.714" fill="#000000"/>
  <rect x="110.986" y="17.377" width="3.714" height="3.714" fill="#000000"/>
  <rect x="88.700" y="21.091" width="3.714" height="3.714" fill="#000000"/>
  <rect x="92.414" y="21.091" width="3.714" height="3.714" fill="#000000"/>
  <rect x="99.843" y="21.091" width="3.714" height="3.714" fill="#000000"/>
  <rect x="110.986" y="21.091" width="3.714" height="3.714" fill="#000000"/>
  <rect x="88.700" y="24.805" width="3.714" height="3.714" fill="#000000"/>
  <rect x="92.414" y="24.805" width="3.714" height="3.714" fill="#000000"/>
  <rect x="96.129" y="24.805" width="3.714" height="3.714" fill="#000000"/>
  <rect x="103.557" y="24.805" width="3.714" height="3.714" fill="#000000"/>
  <rect x="110.986" y="24.805" width="3.714" height="3.714" fill="#000000"/>
  <rect x="88.700" y="28.520" width="3.714" height="3.714" fill="#000000"/>
  <rect x="92.414" y="28.520" width="3.714" height="3.714" fill="#000000"/>
  <rect x="96.129" y="28.520" width="3.714" height="3.714" fill="#000000"/>
  <rect x="99.843" y="28.520" width="3.714" height="3.714" fill="#000000"/>
  <rect x="110.986" y="28.520" width="3.714" height="3.714" fill="#000000"/>
  <rect x="88.700" y="32.234" width="3.714" height="3.714" fill="#000000"/>
  <rect x="92.414" y="32.234" width="3.714" height="3.714" fill="#000000"/>
  <rect x="96.129" y="32.234" width="3.714" height="3.714" fill="#000000"/>
  <rect x="99.843" y="32.234" width="3.714" height="3.714" fill="#000000"/>
  <rect x="107.271" y="32.234" width="3.714" height="3.714" fill="#000000"/>
  <rect x="110.986" y="32.234" width="3.714" height="3.714" fill="#000000"/>
  <rect x="88.700" y="35.948" width="3.714" height="3.714" fill="#000000"/>
  <rect x="92.414" y="35.948" width="3.714" height="3.714" fill="#000000"/>
  <rect x="96.129" y="35.948" width="3.714" height="3.714" fill="#000000"/>
  <rect x="99.843" y="35.948" width="3.714" height="3.714" fill="#000000"/>
  <rect x="103.557" y="35.948" width="3.714" height="3.714" fill="#000000"/>
  <rect x="107.271" y="35.948" width="3.714" height="3.714" fill="#000000"/>
  <rect x="110.986" y="35.948" width="3.714" height="3.714" fill="#000000"/>
  <text x="116.70" y="27.96" font-size="2.8" text-anchor="start" fill="#666" font-family="serif">0</text>
  <rect x="305.30" y="13.66" width="26.00" height="26.00" fill="#ffffff" stroke="none" stroke-width="0.5" rx="0"/>
  <rect x="305.300" y="13.663" width="3.714" height="3.714" fill="#000000"/>
  <rect x="309.014" y="13.663" width="3.714" height="3.714" fill="#000000"/>
  <rect x="312.729" y="13.663" width="3.714" height="3.714" fill="#000000"/>
  <rect x="316.443" y="13.663" width="3.714" height="3.714" fill="#000000"/>
  <rect x="320.157" y="13.663" width="3.714" height="3.714" fill="#000000"/>
  <rect x="323.871" y="13.663" width="3.714" height="3.714" fill="#000000"/>
  <rect x="327.586" y="13.663" width="3.714" height="3.714" fill="#000000"/>
  <rect x="305.300" y="17.377" width="3.714" height="3.714" fill="#000000"/>
  <rect x="309.014" y="17.377" width="3.714" height="3.714" fill="#000000"/>
  <rect x="312.729" y="17.377" width="3.714" height="3.714" fill="#000000"/>
  <rect x="316.443" y="17.377" width="3.714" height="3.714" fill="#000000"/>
  <rect x="320.157" y="17.377" width="3.714" height="3.714" fill="#000000"/>
  <rect x="323.871" y="17.377" width="3.714" height="3.714" fill="#000000"/>
  <rect x="327.586" y="17.377" width="3.714" height="3.714" fill="#000000"/>
  <rect x="305.300" y="21.091" width="3.714" height="3.714" fill="#000000"/>
  <rect x="309.014" y="21.091" width="3.714" height="3.714" fill="#000000"/>
  <rect x="312.729" y="21.091" width="3.714" height="3.714" fill="#000000"/>
  <rect x="316.443" y="21.091" width="3.714" height="3.714" fill="#000000"/>
  <rect x="320.157" y="21.091" width="3.714" height="3.714" fill="#000000"/>
  <rect x="323.871" y="21.091" width="3.714" height="3.714" fill="#000000"/>
  <rect x="327.586" y="21.091" width="3.714" height="3.714" fill="#000000"/>
  <rect x="305.300" y="24.805" width="3.714" height="3.714" fill="#000000"/>
  <rect x="309.014" y="24.805" width="3.714" height="3.714" fill="#000000"/>
  <rect x="327.586" y="24.805" width="3.714" height="3.714" fill="#000000"/>
  <rect x="305.300" y="28.520" width="3.714" height="3.714" fill="#000000"/>
  <rect x="309.014" y="28.520" width="3.714" height="3.714" fill="#000000"/>
  <rect x="316.443" y="28.520" width="3.714" height="3.714" fill="#000000"/>
  <rect x="320.157" y="28.520" width="3.714" height="3.714" fill="#000000"/>
  <rect x="327.586" y="28.520" width="3.714" height="3.714" fill="#000000"/>
  <rect x="305.300" y="32.234" width="3.714" height="3.714" fill="#000000"/>
  <rect x="309.014" y="32.234" width="3.714" height="3.714" fill="#000000"/>
  <rect x="316.443" y="32.234" width="3.714" height="3.714" fill="#000000"/>
  <rect x="323.871" y="32.234" width="3.714" height="3.714" fill="#000000"/>
  <rect x="327.586" y="32.234" width="3.714" height="3.714" fill="#000000"/>
  <rect x="305.300" y="35.948" width="3.714" height="3.714" fill="#000000"/>
  <rect x="309.014" y="35.948" width="3.714" height="3.714" fill="#000000"/>
  <rect x="312.729" y="35.948" width="3.714" height="3.714" fill="#000000"/>
  <rect x="316.443" y="35.948" width="3.714" height="3.714" fill="#000000"/>
  <rect x="320.157" y="35.948" width="3.714" height="3.714" fill="#000000"/>
  <rect x="323.871" y="35.948" width="3.714" height="3.714" fill="#000000"/>
  <rect x="327.586" y="35.948" width="3.714" height="3.714" fill="#000000"/>
  <text x="303.30" y="27.96" font-size="2.8" text-anchor="end" fill="#666" font-family="serif">1</text>
  <rect x="305.30" y="257.34" width="26.00" height="26.00" fill="#ffffff" stroke="none" stroke-width="0.5" rx="0"/>
  <rect x="305.300" y="257.337" width="3.714" height="3.714" fill="#000000"/>
  <rect x="309.014" y="257.337" width="3.714" height="3.714" fill="#000000"/>
  <rect x="312.729" y="257.337" width="3.714" height="3.714" fill="#000000"/>
  <rect x="316.443" y="257.337" width="3.714" height="3.714" fill="#000000"/>
  <rect x="320.157" y="257.337" width="3.714" height="3.714" fill="#000000"/>
  <rect x="323.871" y="257.337" width="3.714" height="3.714" fill="#000000"/>
  <rect x="327.586" y="257.337" width="3.714" height="3.714" fill="#000000"/>
  <rect x="305.300" y="261.052" width="3.714" height="3.714" fill="#000000"/>
  <rect x="309.014" y="261.052" width="3.714" height="3.714" fill="#000000"/>
  <rect x="312.729" y="261.052" width="3.714" height="3.714" fill="#000000"/>
  <rect x="316.443" y="261.052" width="3.714" height="3.714" fill="#000000"/>
  <rect x="320.157" y="261.052" width="3.714" height="3.714" fill="#000000"/>
  <rect x="323.871" y="261.052" width="3.714" height="3.714" fill="#000000"/>
  <rect x="327.586" y="261.052" width="3.714" height="3.714" fill="#000000"/>
  <rect x="305.300" y="264.766" width="3.714" height="3.714" fill="#000000"/>
  <rect x="309.014" y="264.766" width="3.714" height="3.714" fill="#000000"/>
  <rect x="312.729" y="264.766" width="3.714" height="3.714" fill="#000000"/>
  <rect x="316.443" y="264.766" width="3.714" height="3.714" fill="#000000"/>
  <rect x="327.586" y="264.766" width="3.714" height="3.714" fill="#000000"/>
  <rect x="305.300" y="268.480" width="3.714" height="3.714" fill="#000000"/>
  <rect x="309.014" y="268.480" width="3.714" height="3.714" fill="#000000"/>
  <rect x="312.729" y="268.480" width="3.714" height="3.714" fill="#000000"/>
  <rect x="316.443" y="268.480" width="3.714" height="3.714" fill="#000000"/>
  <rect x="327.586" y="268.480" width="3.714" height="3.714" fill="#000000"/>
  <rect x="305.300" y="272.195" width="3.714" height="3.714" fill="#000000"/>
  <rect x="309.014" y="272.195" width="3.714" height="3.714" fill="#000000"/>
  <rect x="312.729" y="272.195" width="3.714" height="3.714" fill="#000000"/>
  <rect x="316.443" y="272.195" width="3.714" height="3.714" fill="#000000"/>
  <rect x="323.871" y="272.195" width="3.714" height="3.714" fill="#000000"/>
  <rect x="327.586" y="272.195" width="3.714" height="3.714" fill="#000000"/>
  <rect x="305.300" y="275.909" width="3.714" height="3.714" fill="#000000"/>
  <rect x="309.014" y="275.909" width="3.714" height="3.714" fill="#000000"/>
  <rect x="320.157" y="275.909" width="3.714" height="3.714" fill="#000000"/>
  <rect x="327.586" y="275.909" width="3.714" height="3.714" fill="#000000"/>
  <rect x="305.300" y="279.623" width="3.714" height="3.714" fill="#000000"/>
  <rect x="309.014" y="279.623" width="3.714" height="3.714" fill="#000000"/>
  <rect x="312.729" y="279.623" width="3.714" height="3.714" fill="#000000"/>
  <rect x="316.443" y="279.623" width="3.714" height="3.714" fill="#000000"/>
  <rect x="320.157" y="279.623" width="3.714" height="3.714" fill="#000000"/>
  <rect x="323.871" y="279.623" width="3.714" height="3.714" fill="#000000"/>
  <rect x="327.586" y="279.623" width="3.714" height="3.714" fill="#000000"/>
  <text x="303.30" y="269.04" font-size="2.8" text-anchor="end" fill="#666" font-family="serif">2</text>
  <rect x="88.70" y="257.34" width="26.00" height="26.00" fill="#ffffff" stroke="none" stroke-width="0.5" rx="0"/>
  <rect x="88.700" y="257.337" width="3.714" height="3.714" fill="#000000"/>
  <rect x="92.414" y="257.337" width="3.714" height="3.714" fill="#000000"/>
  <rect x="96.129" y="257.337" width="3.714" height="3.714" fill="#000000"/>
  <rect x="99.843" y="257.337" width="3.714" height="3.714" fill="#000000"/>
  <rect x="103.557" y="257.337" width="3.714" height="3.714" fill="#000000"/>
  <rect x="107.271" y="257.337" width="3.714" height="3.714" fill="#000000"/>
  <rect x="110.986" y="257.337" width="3.714" height="3.714" fill="#000000"/>
  <rect x="88.700" y="261.052" width="3.714" height="3.714" fill="#000000"/>
  <rect x="92.414" y="261.052" width="3.714" height="3.714" fill="#000000"/>
  <rect x="96.129" y="261.052" width="3.714" height="3.714" fill="#000000"/>
  <rect x="99.843" y="261.052" width="3.714" height="3.714" fill="#000000"/>
  <rect x="103.557" y="261.052" width="3.714" height="3.714" fill="#000000"/>
  <rect x="107.271" y="261.052" width="3.714" height="3.714" fill="#000000"/>
  <rect x="110.986" y="261.052" width="3.714" height="3.714" fill="#000000"/>
  <rect x="88.700" y="264.766" width="3.714" height="3.714" fill="#000000"/>
  <rect x="92.414" y="264.766" width="3.714" height="3.714" fill="#000000"/>
  <rect x="99.843" y="264.766" width="3.714" height="3.714" fill="#000000"/>
  <rect x="103.557" y="264.766" width="3.714" height="3.714" fill="#000000"/>
  <rect x="110.986" y="264.766" width="3.714" height="3.714" fill="#000000"/>
  <rect x="88.700" y="268.480" width="3.714" height="3.714" fill="#000000"/>
  <rect x="92.414" y="268.480" width="3.714" height="3.714" fill="#000000"/>
  <rect x="99.843" y="268.480" width="3.714" height="3.714" fill="#000000"/>
  <rect x="103.557" y="268.480" width="3.714" height="3.714" fill="#000000"/>
  <rect x="110.986" y="268.480" width="3.714" height="3.714" fill="#000000"/>
  <rect x="88.700" y="272.195" width="3.714" height="3.714" fill="#000000"/>
  <rect x="92.414" y="272.195" width="3.714" height="3.714" fill="#000000"/>
  <rect x="96.129" y="272.195" width="3.714" height="3.714" fill="#000000"/>
  <rect x="103.557" y="272.195" width="3.714" height="3.714" fill="#000000"/>
  <rect x="107.271" y="272.195" width="3.714" height="3.714" fill="#000000"/>
  <rect x="110.986" y="272.195" width="3.714" height="3.714" fill="#000000"/>
  <rect x="88.700" y="275.909" width="3.714" height="3.714" fill="#000000"/>
  <rect x="92.414" y="275.909" width="3.714" height="3.714" fill="#000000"/>
  <rect x="96.129" y="275.909" width="3.714" height="3.714" fill="#000000"/>
  <rect x="107.271" y="275.909" width="3.714" height="3.714" fill="#000000"/>
  <rect x="110.986" y="275.909" width="3.714" height="3.714" fill="#000000"/>
  <rect x="88.700" y="279.623" width="3.714" height="3.714" fill="#000000"/>
  <rect x="92.414" y="279.623" width="3.714" height="3.714" fill="#000000"/>
  <rect x="96.129" y="279.623" width="3.714" height="3.714" fill="#000000"/>
  <rect x="99.843" y="279.623" width="3.714" height="3.714" fill="#000000"/>
  <rect x="103.557" y="279.623" width="3.714" height="3.714" fill="#000000"/>
  <rect x="107.271" y="279.623" width="3.714" height="3.714" fill="#000000"/>
  <rect x="110.986" y="279.623" width="3.714" height="3.714" fill="#000000"/>
  <text x="116.70" y="269.04" font-size="2.8" text-anchor="start" fill="#666" font-family="serif">3</text>
  <rect x="37.50" y="37.50" width="28.00" height="222.00" fill="#e8d5a0" stroke="#888" stroke-width="0.4" rx="0"/>
  <text x="51.50" y="146.50" font-size="3.2" text-anchor="middle" fill="#222" font-family="serif" dominant-baseline="middle">BLACK</text>
  <text x="51.50" y="152.00" font-size="2.6" text-anchor="middle" fill="#444" font-family="serif" dominant-baseline="middle">CAPTURED</text>
  <rect x="354.50" y="37.50" width="28.00" height="222.00" fill="#e8d5a0" stroke="#888" stroke-width="0.4" rx="0"/>
  <text x="368.50" y="146.50" font-size="3.2" text-anchor="middle" fill="#8b0000" font-family="serif" dominant-baseline="middle">RED</text>
  <text x="368.50" y="152.00" font-size="2.6" text-anchor="middle" fill="#444" font-family="serif" dominant-baseline="middle">CAPTURED</text>
  <line x1="111.33" y1="259.50" x2="111.33" y2="37.50" stroke="#1a1a1a" stroke-width="0.7"/>
  <line x1="136.00" y1="259.50" x2="136.00" y2="160.83" stroke="#1a1a1a" stroke-width="0.5"/>
  <line x1="136.00" y1="136.17" x2="136.00" y2="37.50" stroke="#1a1a1a" stroke-width="0.5"/>
  <line x1="160.67" y1="259.50" x2="160.67" y2="160.83" stroke="#1a1a1a" stroke-width="0.5"/>
  <line x1="160.67" y1="136.17" x2="160.67" y2="37.50" stroke="#1a1a1a" stroke-width="0.5"/>
  <line x1="185.33" y1="259.50" x2="185.33" y2="160.83" stroke="#1a1a1a" stroke-width="0.5"/>
  <line x1="185.33" y1="136.17" x2="185.33" y2="37.50" stroke="#1a1a1a" stroke-width="0.5"/>
  <line x1="210.00" y1="259.50" x2="210.00" y2="160.83" stroke="#1a1a1a" stroke-width="0.5"/>
  <line x1="210.00" y1="136.17" x2="210.00" y2="37.50" stroke="#1a1a1a" stroke-width="0.5"/>
  <line x1="234.67" y1="259.50" x2="234.67" y2="160.83" stroke="#1a1a1a" stroke-width="0.5"/>
  <line x1="234.67" y1="136.17" x2="234.67" y2="37.50" stroke="#1a1a1a" stroke-width="0.5"/>
  <line x1="259.33" y1="259.50" x2="259.33" y2="160.83" stroke="#1a1a1a" stroke-width="0.5"/>
  <line x1="259.33" y1="136.17" x2="259.33" y2="37.50" stroke="#1a1a1a" stroke-width="0.5"/>
  <line x1="284.00" y1="259.50" x2="284.00" y2="160.83" stroke="#1a1a1a" stroke-width="0.5"/>
  <line x1="284.00" y1="136.17" x2="284.00" y2="37.50" stroke="#1a1a1a" stroke-width="0.5"/>
  <line x1="308.67" y1="259.50" x2="308.67" y2="37.50" stroke="#1a1a1a" stroke-width="0.7"/>
  <line x1="111.33" y1="259.50" x2="308.67" y2="259.50" stroke="#1a1a1a" stroke-width="0.5"/>
  <line x1="111.33" y1="234.83" x2="308.67" y2="234.83" stroke="#1a1a1a" stroke-width="0.5"/>
  <line x1="111.33" y1="210.17" x2="308.67" y2="210.17" stroke="#1a1a1a" stroke-width="0.5"/>
  <line x1="111.33" y1="185.50" x2="308.67" y2="185.50" stroke="#1a1a1a" stroke-width="0.5"/>
  <line x1="111.33" y1="160.83" x2="308.67" y2="160.83" stroke="#1a1a1a" stroke-width="0.5"/>
  <line x1="111.33" y1="136.17" x2="308.67" y2="136.17" stroke="#1a1a1a" stroke-width="0.5"/>
  <line x1="111.33" y1="111.50" x2="308.67" y2="111.50" stroke="#1a1a1a" stroke-width="0.5"/>
  <line x1="111.33" y1="86.83" x2="308.67" y2="86.83" stroke="#1a1a1a" stroke-width="0.5"/>
  <line x1="111.33" y1="62.17" x2="308.67" y2="62.17" stroke="#1a1a1a" stroke-width="0.5"/>
  <line x1="111.33" y1="37.50" x2="308.67" y2="37.50" stroke="#1a1a1a" stroke-width="0.5"/>
  <line x1="185.33" y1="259.50" x2="234.67" y2="210.17" stroke="#1a1a1a" stroke-width="0.5"/>
  <line x1="234.67" y1="259.50" x2="185.33" y2="210.17" stroke="#1a1a1a" stroke-width="0.5"/>
  <line x1="185.33" y1="86.83" x2="234.67" y2="37.50" stroke="#1a1a1a" stroke-width="0.5"/>
  <line x1="234.67" y1="86.83" x2="185.33" y2="37.50" stroke="#1a1a1a" stroke-width="0.5"/>
  <text x="160.67" y="150.00" font-size="7" text-anchor="middle" fill="#5c3d1a" font-weight="bold" font-family="serif">楚  河</text>
  <text x="259.33" y="150.00" font-size="7" text-anchor="middle" fill="#5c3d1a" font-weight="bold" font-family="serif">漢  界</text>
  <line x1="135.20" y1="209.37" x2="133.20" y2="210.17" stroke="#1a1a1a" stroke-width="0.35"/>
  <line x1="136.00" y1="209.37" x2="136.00" y2="207.37" stroke="#1a1a1a" stroke-width="0.35"/>
  <line x1="135.20" y1="210.97" x2="133.20" y2="210.17" stroke="#1a1a1a" stroke-width="0.35"/>
  <line x1="136.00" y1="210.97" x2="136.00" y2="212.97" stroke="#1a1a1a" stroke-width="0.35"/>
  <line x1="136.80" y1="209.37" x2="138.80" y2="210.17" stroke="#1a1a1a" stroke-width="0.35"/>
  <line x1="136.00" y1="209.37" x2="136.00" y2="207.37" stroke="#1a1a1a" stroke-width="0.35"/>
  <line x1="136.80" y1="210.97" x2="138.80" y2="210.17" stroke="#1a1a1a" stroke-width="0.35"/>
  <line x1="136.00" y1="210.97" x2="136.00" y2="212.97" stroke="#1a1a1a" stroke-width="0.35"/>
  <line x1="283.20" y1="209.37" x2="281.20" y2="210.17" stroke="#1a1a1a" stroke-width="0.35"/>
  <line x1="284.00" y1="209.37" x2="284.00" y2="207.37" stroke="#1a1a1a" stroke-width="0.35"/>
  <line x1="283.20" y1="210.97" x2="281.20" y2="210.17" stroke="#1a1a1a" stroke-width="0.35"/>
  <line x1="284.00" y1="210.97" x2="284.00" y2="212.97" stroke="#1a1a1a" stroke-width="0.35"/>
  <line x1="284.80" y1="209.37" x2="286.80" y2="210.17" stroke="#1a1a1a" stroke-width="0.35"/>
  <line x1="284.00" y1="209.37" x2="284.00" y2="207.37" stroke="#1a1a1a" stroke-width="0.35"/>
  <line x1="284.80" y1="210.97" x2="286.80" y2="210.17" stroke="#1a1a1a" stroke-width="0.35"/>
  <line x1="284.00" y1="210.97" x2="284.00" y2="212.97" stroke="#1a1a1a" stroke-width="0.35"/>
  <line x1="135.20" y1="86.03" x2="133.20" y2="86.83" stroke="#1a1a1a" stroke-width="0.35"/>
  <line x1="136.00" y1="86.03" x2="136.00" y2="84.03" stroke="#1a1a1a" stroke-width="0.35"/>
  <line x1="135.20" y1="87.63" x2="133.20" y2="86.83" stroke="#1a1a1a" stroke-width="0.35"/>
  <line x1="136.00" y1="87.63" x2="136.00" y2="89.63" stroke="#1a1a1a" stroke-width="0.35"/>
  <line x1="136.80" y1="86.03" x2="138.80" y2="86.83" stroke="#1a1a1a" stroke-width="0.35"/>
  <line x1="136.00" y1="86.03" x2="136.00" y2="84.03" stroke="#1a1a1a" stroke-width="0.35"/>
  <line x1="136.80" y1="87.63" x2="138.80" y2="86.83" stroke="#1a1a1a" stroke-width="0.35"/>
  <line x1="136.00" y1="87.63" x2="136.00" y2="89.63" stroke="#1a1a1a" stroke-width="0.35"/>
  <line x1="283.20" y1="86.03" x2="281.20" y2="86.83" stroke="#1a1a1a" stroke-width="0.35"/>
  <line x1="284.00" y1="86.03" x2="284.00" y2="84.03" stroke="#1a1a1a" stroke-width="0.35"/>
  <line x1="283.20" y1="87.63" x2="281.20" y2="86.83" stroke="#1a1a1a" stroke-width="0.35"/>
  <line x1="284.00" y1="87.63" x2="284.00" y2="89.63" stroke="#1a1a1a" stroke-width="0.35"/>
  <line x1="284.80" y1="86.03" x2="286.80" y2="86.83" stroke="#1a1a1a" stroke-width="0.35"/>
  <line x1="284.00" y1="86.03" x2="284.00" y2="84.03" stroke="#1a1a1a" stroke-width="0.35"/>
  <line x1="284.80" y1="87.63" x2="286.80" y2="86.83" stroke="#1a1a1a" stroke-width="0.35"/>
  <line x1="284.00" y1="87.63" x2="284.00" y2="89.63" stroke="#1a1a1a" stroke-width="0.35"/>
  <line x1="112.03" y1="184.80" x2="113.53" y2="184.80" stroke="#1a1a1a" stroke-width="0.3"/>
  <line x1="113.53" y1="184.80" x2="113.53" y2="185.50" stroke="#1a1a1a" stroke-width="0.3"/>
  <line x1="112.03" y1="186.20" x2="113.53" y2="186.20" stroke="#1a1a1a" stroke-width="0.3"/>
  <line x1="113.53" y1="186.20" x2="113.53" y2="185.50" stroke="#1a1a1a" stroke-width="0.3"/>
  <line x1="112.03" y1="110.80" x2="113.53" y2="110.80" stroke="#1a1a1a" stroke-width="0.3"/>
  <line x1="113.53" y1="110.80" x2="113.53" y2="111.50" stroke="#1a1a1a" stroke-width="0.3"/>
  <line x1="112.03" y1="112.20" x2="113.53" y2="112.20" stroke="#1a1a1a" stroke-width="0.3"/>
  <line x1="113.53" y1="112.20" x2="113.53" y2="111.50" stroke="#1a1a1a" stroke-width="0.3"/>
  <line x1="159.97" y1="184.80" x2="158.47" y2="184.80" stroke="#1a1a1a" stroke-width="0.3"/>
  <line x1="158.47" y1="184.80" x2="158.47" y2="185.50" stroke="#1a1a1a" stroke-width="0.3"/>
  <line x1="159.97" y1="186.20" x2="158.47" y2="186.20" stroke="#1a1a1a" stroke-width="0.3"/>
  <line x1="158.47" y1="186.20" x2="158.47" y2="185.50" stroke="#1a1a1a" stroke-width="0.3"/>
  <line x1="161.37" y1="184.80" x2="162.87" y2="184.80" stroke="#1a1a1a" stroke-width="0.3"/>
  <line x1="162.87" y1="184.80" x2="162.87" y2="185.50" stroke="#1a1a1a" stroke-width="0.3"/>
  <line x1="161.37" y1="186.20" x2="162.87" y2="186.20" stroke="#1a1a1a" stroke-width="0.3"/>
  <line x1="162.87" y1="186.20" x2="162.87" y2="185.50" stroke="#1a1a1a" stroke-width="0.3"/>
  <line x1="159.97" y1="110.80" x2="158.47" y2="110.80" stroke="#1a1a1a" stroke-width="0.3"/>
  <line x1="158.47" y1="110.80" x2="158.47" y2="111.50" stroke="#1a1a1a" stroke-width="0.3"/>
  <line x1="159.97" y1="112.20" x2="158.47" y2="112.20" stroke="#1a1a1a" stroke-width="0.3"/>
  <line x1="158.47" y1="112.20" x2="158.47" y2="111.50" stroke="#1a1a1a" stroke-width="0.3"/>
  <line x1="161.37" y1="110.80" x2="162.87" y2="110.80" stroke="#1a1a1a" stroke-width="0.3"/>
  <line x1="162.87" y1="110.80" x2="162.87" y2="111.50" stroke="#1a1a1a" stroke-width="0.3"/>
  <line x1="161.37" y1="112.20" x2="162.87" y2="112.20" stroke="#1a1a1a" stroke-width="0.3"/>
  <line x1="162.87" y1="112.20" x2="162.87" y2="111.50" stroke="#1a1a1a" stroke-width="0.3"/>
  <line x1="209.30" y1="184.80" x2="207.80" y2="184.80" stroke="#1a1a1a" stroke-width="0.3"/>
  <line x1="207.80" y1="184.80" x2="207.80" y2="185.50" stroke="#1a1a1a" stroke-width="0.3"/>
  <line x1="209.30" y1="186.20" x2="207.80" y2="186.20" stroke="#1a1a1a" stroke-width="0.3"/>
  <line x1="207.80" y1="186.20" x2="207.80" y2="185.50" stroke="#1a1a1a" stroke-width="0.3"/>
  <line x1="210.70" y1="184.80" x2="212.20" y2="184.80" stroke="#1a1a1a" stroke-width="0.3"/>
  <line x1="212.20" y1="184.80" x2="212.20" y2="185.50" stroke="#1a1a1a" stroke-width="0.3"/>
  <line x1="210.70" y1="186.20" x2="212.20" y2="186.20" stroke="#1a1a1a" stroke-width="0.3"/>
  <line x1="212.20" y1="186.20" x2="212.20" y2="185.50" stroke="#1a1a1a" stroke-width="0.3"/>
  <line x1="209.30" y1="110.80" x2="207.80" y2="110.80" stroke="#1a1a1a" stroke-width="0.3"/>
  <line x1="207.80" y1="110.80" x2="207.80" y2="111.50" stroke="#1a1a1a" stroke-width="0.3"/>
  <line x1="209.30" y1="112.20" x2="207.80" y2="112.20" stroke="#1a1a1a" stroke-width="0.3"/>
  <line x1="207.80" y1="112.20" x2="207.80" y2="111.50" stroke="#1a1a1a" stroke-width="0.3"/>
  <line x1="210.70" y1="110.80" x2="212.20" y2="110.80" stroke="#1a1a1a" stroke-width="0.3"/>
  <line x1="212.20" y1="110.80" x2="212.20" y2="111.50" stroke="#1a1a1a" stroke-width="0.3"/>
  <line x1="210.70" y1="112.20" x2="212.20" y2="112.20" stroke="#1a1a1a" stroke-width="0.3"/>
  <line x1="212.20" y1="112.20" x2="212.20" y2="111.50" stroke="#1a1a1a" stroke-width="0.3"/>
  <line x1="258.63" y1="184.80" x2="257.13" y2="184.80" stroke="#1a1a1a" stroke-width="0.3"/>
  <line x1="257.13" y1="184.80" x2="257.13" y2="185.50" stroke="#1a1a1a" stroke-width="0.3"/>
  <line x1="258.63" y1="186.20" x2="257.13" y2="186.20" stroke="#1a1a1a" stroke-width="0.3"/>
  <line x1="257.13" y1="186.20" x2="257.13" y2="185.50" stroke="#1a1a1a" stroke-width="0.3"/>
  <line x1="260.03" y1="184.80" x2="261.53" y2="184.80" stroke="#1a1a1a" stroke-width="0.3"/>
  <line x1="261.53" y1="184.80" x2="261.53" y2="185.50" stroke="#1a1a1a" stroke-width="0.3"/>
  <line x1="260.03" y1="186.20" x2="261.53" y2="186.20" stroke="#1a1a1a" stroke-width="0.3"/>
  <line x1="261.53" y1="186.20" x2="261.53" y2="185.50" stroke="#1a1a1a" stroke-width="0.3"/>
  <line x1="258.63" y1="110.80" x2="257.13" y2="110.80" stroke="#1a1a1a" stroke-width="0.3"/>
  <line x1="257.13" y1="110.80" x2="257.13" y2="111.50" stroke="#1a1a1a" stroke-width="0.3"/>
  <line x1="258.63" y1="112.20" x2="257.13" y2="112.20" stroke="#1a1a1a" stroke-width="0.3"/>
  <line x1="257.13" y1="112.20" x2="257.13" y2="111.50" stroke="#1a1a1a" stroke-width="0.3"/>
  <line x1="260.03" y1="110.80" x2="261.53" y2="110.80" stroke="#1a1a1a" stroke-width="0.3"/>
  <line x1="261.53" y1="110.80" x2="261.53" y2="111.50" stroke="#1a1a1a" stroke-width="0.3"/>
  <line x1="260.03" y1="112.20" x2="261.53" y2="112.20" stroke="#1a1a1a" stroke-width="0.3"/>
  <line x1="261.53" y1="112.20" x2="261.53" y2="111.50" stroke="#1a1a1a" stroke-width="0.3"/>
  <line x1="307.97" y1="184.80" x2="306.47" y2="184.80" stroke="#1a1a1a" stroke-width="0.3"/>
  <line x1="306.47" y1="184.80" x2="306.47" y2="185.50" stroke="#1a1a1a" stroke-width="0.3"/>
  <line x1="307.97" y1="186.20" x2="306.47" y2="186.20" stroke="#1a1a1a" stroke-width="0.3"/>
  <line x1="306.47" y1="186.20" x2="306.47" y2="185.50" stroke="#1a1a1a" stroke-width="0.3"/>
  <line x1="307.97" y1="110.80" x2="306.47" y2="110.80" stroke="#1a1a1a" stroke-width="0.3"/>
  <line x1="306.47" y1="110.80" x2="306.47" y2="111.50" stroke="#1a1a1a" stroke-width="0.3"/>
  <line x1="307.97" y1="112.20" x2="306.47" y2="112.20" stroke="#1a1a1a" stroke-width="0.3"/>
  <line x1="306.47" y1="112.20" x2="306.47" y2="111.50" stroke="#1a1a1a" stroke-width="0.3"/>
  <text x="106.33" y="260.70" font-size="3.5" text-anchor="end" fill="#555" font-family="serif">0</text>
  <text x="106.33" y="236.03" font-size="3.5" text-anchor="end" fill="#555" font-family="serif">1</text>
  <text x="106.33" y="211.37" font-size="3.5" text-anchor="end" fill="#555" font-family="serif">2</text>
  <text x="106.33" y="186.70" font-size="3.5" text-anchor="end" fill="#555" font-family="serif">3</text>
  <text x="106.33" y="162.03" font-size="3.5" text-anchor="end" fill="#555" font-family="serif">4</text>
  <text x="106.33" y="137.37" font-size="3.5" text-anchor="end" fill="#555" font-family="serif">5</text>
  <text x="106.33" y="112.70" font-size="3.5" text-anchor="end" fill="#555" font-family="serif">6</text>
  <text x="106.33" y="88.03" font-size="3.5" text-anchor="end" fill="#555" font-family="serif">7</text>
  <text x="106.33" y="63.37" font-size="3.5" text-anchor="end" fill="#555" font-family="serif">8</text>
  <text x="106.33" y="38.70" font-size="3.5" text-anchor="end" fill="#555" font-family="serif">9</text>
  <rect x="111.33" y="37.50" width="197.33" height="222.00" fill="none" stroke="#1a1a1a" stroke-width="1.0" rx="0"/>
  <text x="210.00" y="33.00" font-size="2.3" text-anchor="middle" fill="#777" font-family="serif" dominant-baseline="middle">420×297 mm | 9×10 | cell 24.7 mm sq | ArUco 4×4_50 0–3 | 26 mm</text>
  <text x="210.00" y="28.70" font-size="3.6" text-anchor="middle" fill="#1a1a1a" font-weight="bold" font-family="serif">黑方  BLACK (Human)</text>
  <text x="111.33" y="267.16" font-size="3.5" text-anchor="middle" fill="#555" font-family="serif">A</text>
  <text x="136.00" y="267.16" font-size="3.5" text-anchor="middle" fill="#555" font-family="serif">B</text>
  <text x="160.67" y="267.16" font-size="3.5" text-anchor="middle" fill="#555" font-family="serif">C</text>
  <text x="185.33" y="267.16" font-size="3.5" text-anchor="middle" fill="#555" font-family="serif">D</text>
  <text x="210.00" y="267.16" font-size="3.5" text-anchor="middle" fill="#555" font-family="serif">E</text>
  <text x="234.67" y="267.16" font-size="3.5" text-anchor="middle" fill="#555" font-family="serif">F</text>
  <text x="259.33" y="267.16" font-size="3.5" text-anchor="middle" fill="#555" font-family="serif">G</text>
  <text x="284.00" y="267.16" font-size="3.5" text-anchor="middle" fill="#555" font-family="serif">H</text>
  <text x="308.67" y="267.16" font-size="3.5" text-anchor="middle" fill="#555" font-family="serif">I</text>
  <text x="210.00" y="274.11" font-size="3.6" text-anchor="middle" fill="#c0392b" font-weight="bold" font-family="serif">红方  RED (Robot)</text>
</svg>
