<?xml version="1.0" encoding="UTF-8"?>
<svg xmlns="http://www.w3.org/2000/svg" width="594.0mm" height="420.0mm" viewBox="0 0 594.0 420.0">
  <rect x="0.00" y="0.00" width="594.00" height="420.00" fill="#f5e6c8" stroke="none" stroke-width="0.5" rx="0"/>
  <rect x="8.00" y="8.00" width="27.30" height="27.30" fill="#ffffff" stroke="none" stroke-width="0.5" rx="0"/>
  <rect x="8.000" y="8.000" width="3.900" height="3.900" fill="#000000"/>
  <rect x="11.900" y="8.000" width="3.900" height="3.900" fill="#000000"/>
  <rect x="15.800" y="8.000" width="3.900" height="3.900" fill="#000000"/>
  <rect x="19.700" y="8.000" width="3.900" height="3.900" fill="#000000"/>
  <rect x="23.600" y="8.000" width="3.900" height="3.900" fill="#000000"/>
  <rect x="27.500" y="8.000" width="3.900" height="3.900" fill="#000000"/>
  <rect x="31.400" y="8.000" width="3.900" height="3.900" fill="#000000"/>
  <rect x="8.000" y="11.900" width="3.900" height="3.900" fill="#000000"/>
  <rect x="11.900" y="11.900" width="3.900" height="3.900" fill="#000000"/>
  <rect x="15.800" y="11.900" width="3.900" height="3.900" fill="#000000"/>
  <rect x="19.700" y="11.900" width="3.900" height="3.900" fill="#000000"/>
  <rect x="23.600" y="11.900" width="3.900" height="3.900" fill="#000000"/>
  <rect x="27.500" y="11.900" width="3.900" height="3.900" fill="#000000"/>
  <rect x="31.400" y="11.900" width="3.900" height="3.900" fill="#000000"/>
  <rect x="8.000" y="15.800" width="3.900" height="3.900" fill="#000000"/>
  <rect x="11.900" y="15.800" width="3.900" height="3.900" fill="#000000"/>
  <rect x="19.700" y="15.800" width="3.900" height="3.900" fill="#000000"/>
  <rect x="31.400" y="15.800" width="3.900" height="3.900" fill="#000000"/>
  <rect x="8.000" y="19.700" width="3.900" height="3.900" fill="#000000"/>
  <rect x="11.900" y="19.700" width="3.900" height="3.900" fill="#000000"/>
  <rect x="15.800" y="19.700" width="3.900" height="3.900" fill="#000000"/>
  <rect x="23.600" y="19.700" width="3.900" height="3.900" fill="#000000"/>
  <rect x="31.400" y="19.700" width="3.900" height="3.900" fill="#000000"/>
  <rect x="8.000" y="23.600" width="3.900" height="3.900" fill="#000000"/>
  <rect x="11.900" y="23.600" width="3.900" height="3.900" fill="#000000"/>
  <rect x="15.800" y="23.600" width="3.900" height="3.900" fill="#000000"/>
  <rect x="19.700" y="23.600" width="3.900" height="3.900" fill="#000000"/>
  <rect x="31.400" y="23.600" width="3.900" height="3.900" fill="#000000"/>
  <rect x="8.000" y="27.500" width="3.900" height="3.900" fill="#000000"/>
  <rect x="11.900" y="27.500" width="3.900" height="3.900" fill="#000000"/>
  <rect x="15.800" y="27.500" width="3.900" height="3.900" fill="#000000"/>
  <rect x="19.700" y="27.500" width="3.900" height="3.900" fill="#000000"/>
  <rect x="27.500" y="27.500" width="3.900" height="3.900" fill="#000000"/>
  <rect x="31.400" y="27.500" width="3.900" height="3.900" fill="#000000"/>
  <rect x="8.000" y="31.400" width="3.900" height="3.900" fill="#000000"/>
  <rect x="11.900" y="31.400" width="3.900" height="3.900" fill="#000000"/>
  <rect x="15.800" y="31.400" width="3.900" height="3.900" fill="#000000"/>
  <rect x="19.700" y="31.400" width="3.900" height="3.900" fill="#000000"/>
  <rect x="23.600" y="31.400" width="3.900" height="3.900" fill="#000000"/>
  <rect x="27.500" y="31.400" width="3.900" height="3.900" fill="#000000"/>
  <rect x="31.400" y="31.400" width="3.900" height="3.900" fill="#000000"/>
  <text x="37.30" y="23.02" font-size="2.8" text-anchor="start" fill="#666" font-family="serif">0</text>
  <rect x="558.70" y="8.00" width="27.30" height="27.30" fill="#ffffff" stroke="none" stroke-width="0.5" rx="0"/>
  <rect x="558.700" y="8.000" width="3.900" height="3.900" fill="#000000"/>
  <rect x="562.600" y="8.000" width="3.900" height="3.900" fill="#000000"/>
  <rect x="566.500" y="8.000" width="3.900" height="3.900" fill="#000000"/>
  <rect x="570.400" y="8.000" width="3.900" height="3.900" fill="#000000"/>
  <rect x="574.300" y="8.000" width="3.900" height="3.900" fill="#000000"/>
  <rect x="578.200" y="8.000" width="3.900" height="3.900" fill="#000000"/>
  <rect x="582.100" y="8.000" width="3.900" height="3.900" fill="#000000"/>
  <rect x="558.700" y="11.900" width="3.900" height="3.900" fill="#000000"/>
  <rect x="562.600" y="11.900" width="3.900" height="3.900" fill="#000000"/>
  <rect x="566.500" y="11.900" width="3.900" height="3.900" fill="#000000"/>
  <rect x="570.400" y="11.900" width="3.900" height="3.900" fill="#000000"/>
  <rect x="574.300" y="11.900" width="3.900" height="3.900" fill="#000000"/>
  <rect x="578.200" y="11.900" width="3.900" height="3.900" fill="#000000"/>
  <rect x="582.100" y="11.900" width="3.900" height="3.900" fill="#000000"/>
  <rect x="558.700" y="15.800" width="3.900" height="3.900" fill="#000000"/>
  <rect x="562.600" y="15.800" width="3.900" height="3.900" fill="#000000"/>
  <rect x="566.500" y="15.800" width="3.900" height="3.900" fill="#000000"/>
  <rect x="570.400" y="15.800" width="3.900" height="3.900" fill="#000000"/>
  <rect x="574.300" y="15.800" width="3.900" height="3.900" fill="#000000"/>
  <rect x="578.200" y="15.800" width="3.900" height="3.900" fill="#000000"/>
  <rect x="582.100" y="15.800" width="3.900" height="3.900" fill="#000000"/>
  <rect x="558.700" y="19.700" width="3.900" height="3.900" fill="#000000"/>
  <rect x="562.600" y="19.700" width="3.900" height="3.900" fill="#000000"/>
  <rect x="582.100" y="19.700" width="3.900" height="3.900" fill="#000000"/>
  <rect x="558.700" y="23.600" width="3.900" height="3.900" fill="#000000"/>
  <rect x="562.600" y="23.600" width="3.900" height="3.900" fill="#000000"/>
  <rect x="570.400" y="23.600" width="3.900" height="3.900" fill="#000000"/>
  <rect x="574.300" y="23.600" width="3.900" height="3.900" fill="#000000"/>
  <rect x="582.100" y="23.600" width="3.900" height="3.900" fill="#000000"/>
  <rect x="558.700" y="27.500" width="3.900" height="3.900" fill="#000000"/>
  <rect x="562.600" y="27.500" width="3.900" height="3.900" fill="#000000"/>
  <rect x="570.400" y="27.500" width="3.900" height="3.900" fill="#000000"/>
  <rect x="578.200" y="27.500" width="3.900" height="3.900" fill="#000000"/>
  <rect x="582.100" y="27.500" width="3.900" height="3.900" fill="#000000"/>
  <rect x="558.700" y="31.400" width="3.900" height="3.900" fill="#000000"/>
  <rect x="562.600" y="31.400" width="3.900" height="3.900" fill="#000000"/>
  <rect x="566.500" y="31.400" width="3.900" height="3.900" fill="#000000"/>
  <rect x="570.400" y="31.400" width="3.900" height="3.900" fill="#000000"/>
  <rect x="574.300" y="31.400" width="3.900" height="3.900" fill="#000000"/>
  <rect x="578.200" y="31.400" width="3.900" height="3.900" fill="#000000"/>
  <rect x="582.100" y="31.400" width="3.900" height="3.900" fill="#000000"/>
  <text x="556.70" y="23.02" font-size="2.8" text-anchor="end" fill="#666" font-family="serif">1</text>
  <rect x="558.70" y="384.70" width="27.30" height="27.30" fill="#ffffff" stroke="none" stroke-width="0.5" rx="0"/>
  <rect x="558.700" y="384.700" width="3.900" height="3.900" fill="#000000"/>
  <rect x="562.600" y="384.700" width="3.900" height="3.900" fill="#000000"/>
  <rect x="566.500" y="384.700" width="3.900" height="3.900" fill="#000000"/>
  <rect x="570.400" y="384.700" width="3.900" height="3.900" fill="#000000"/>
  <rect x="574.300" y="384.700" width="3.900" height="3.900" fill="#000000"/>
  <rect x="578.200" y="384.700" width="3.900" height="3.900" fill="#000000"/>
  <rect x="582.100" y="384.700" width="3.900" height="3.900" fill="#000000"/>
  <rect x="558.700" y="388.600" width="3.900" height="3.900" fill="#000000"/>
  <rect x="562.600" y="388.600" width="3.900" height="3.900" fill="#000000"/>
  <rect x="566.500" y="388.600" width="3.900" height="3.900" fill="#000000"/>
  <rect x="570.400" y="388.600" width="3.900" height="3.900" fill="#000000"/>
  <rect x="574.300" y="388.600" width="3.900" height="3.900" fill="#000000"/>
  <rect x="578.200" y="388.600" width="3.900" height="3.900" fill="#000000"/>
  <rect x="582.100" y="388.600" width="3.900" height="3.900" fill="#000000"/>
  <rect x="558.700" y="392.500" width="3.900" height="3.900" fill="#000000"/>
  <rect x="562.600" y="392.500" width="3.900" height="3.900" fill="#000000"/>
  <rect x="566.500" y="392.500" width="3.900" height="3.900" fill="#000000"/>
  <rect x="570.400" y="392.500" width="3.900" height="3.900" fill="#000000"/>
  <rect x="582.100" y="392.500" width="3.900" height="3.900" fill="#000000"/>
  <rect x="558.700" y="396.400" width="3.900" height="3.900" fill="#000000"/>
  <rect x="562.600" y="396.400" width="3.900" height="3.900" fill="#000000"/>
  <rect x="566.500" y="396.400" width="3.900" height="3.900" fill="#000000"/>
  <rect x="570.400" y="396.400" width="3.900" height="3.900" fill="#000000"/>
  <rect x="582.100" y="396.400" width="3.900" height="3.900" fill="#000000"/>
  <rect x="558.700" y="400.300" width="3.900" height="3.900" fill="#000000"/>
  <rect x="562.600" y="400.300" width="3.900" height="3.900" fill="#000000"/>
  <rect x="566.500" y="400.300" width="3.900" height="3.900" fill="#000000"/>
  <rect x="570.400" y="400.300" width="3.900" height="3.900" fill="#000000"/>
  <rect x="578.200" y="400.300" width="3.900" height="3.900" fill="#000000"/>
  <rect x="582.100" y="400.300" width="3.900" height="3.900" fill="#000000"/>
  <rect x="558.700" y="404.200" width="3.900" height="3.900" fill="#000000"/>
  <rect x="562.600" y="404.200" width="3.900" height="3.900" fill="#000000"/>
  <rect x="574.300" y="404.200" width="3.900" height="3.900" fill="#000000"/>
  <rect x="582.100" y="404.200" width="3.900" height="3.900" fill="#000000"/>
  <rect x="558.700" y="408.100" width="3.900" height="3.900" fill="#000000"/>
  <rect x="562.600" y="408.100" width="3.900" height="3.900" fill="#000000"/>
  <rect x="566.500" y="408.100" width="3.900" height="3.900" fill="#000000"/>
  <rect x="570.400" y="408.100" width="3.900" height="3.900" fill="#000000"/>
  <rect x="574.300" y="408.100" width="3.900" height="3.900" fill="#000000"/>
  <rect x="578.200" y="408.100" width="3.900" height="3.900" fill="#000000"/>
  <rect x="582.100" y="408.100" width="3.900" height="3.900" fill="#000000"/>
  <text x="556.70" y="396.99" font-size="2.8" text-anchor="end" fill="#666" font-family="serif">2</text>
  <rect x="8.00" y="384.70" width="27.30" height="27.30" fill="#ffffff" stroke="none" stroke-width="0.5" rx="0"/>
  <rect x="8.000" y="384.700" width="3.900" height="3.900" fill="#000000"/>
  <rect x="11.900" y="384.700" width="3.900" height="3.900" fill="#000000"/>
  <rect x="15.800" y="384.700" width="3.900" height="3.900" fill="#000000"/>
  <rect x="19.700" y="384.700" width="3.900" height="3.900" fill="#000000"/>
  <rect x="23.600" y="384.700" width="3.900" height="3.900" fill="#000000"/>
  <rect x="27.500" y="384.700" width="3.900" height="3.900" fill="#000000"/>
  <rect x="31.400" y="384.700" width="3.900" height="3.900" fill="#000000"/>
  <rect x="8.000" y="388.600" width="3.900" height="3.900" fill="#000000"/>
  <rect x="11.900" y="388.600" width="3.900" height="3.900" fill="#000000"/>
  <rect x="15.800" y="388.600" width="3.900" height="3.900" fill="#000000"/>
  <rect x="19.700" y="388.600" width="3.900" height="3.900" fill="#000000"/>
  <rect x="23.600" y="388.600" width="3.900" height="3.900" fill="#000000"/>
  <rect x="27.500" y="388.600" width="3.900" height="3.900" fill="#000000"/>
  <rect x="31.400" y="388.600" width="3.900" height="3.900" fill="#000000"/>
  <rect x="8.000" y="392.500" width="3.900" height="3.900" fill="#000000"/>
  <rect x="11.900" y="392.500" width="3.900" height="3.900" fill="#000000"/>
  <rect x="19.700" y="392.500" width="3.900" height="3.900" fill="#000000"/>
  <rect x="23.600" y="392.500" width="3.900" height="3.900" fill="#000000"/>
  <rect x="31.400" y="392.500" width="3.900" height="3.900" fill="#000000"/>
  <rect x="8.000" y="396.400" width="3.900" height="3.900" fill="#000000"/>
  <rect x="11.900" y="396.400" width="3.900" height="3.900" fill="#000000"/>
  <rect x="19.700" y="396.400" width="3.900" height="3.900" fill="#000000"/>
  <rect x="23.600" y="396.400" width="3.900" height="3.900" fill="#000000"/>
  <rect x="31.400" y="396.400" width="3.900" height="3.900" fill="#000000"/>
  <rect x="8.000" y="400.300" width="3.900" height="3.900" fill="#000000"/>
  <rect x="11.900" y="400.300" width="3.900" height="3.900" fill="#000000"/>
  <rect x="15.800" y="400.300" width="3.900" height="3.900" fill="#000000"/>
  <rect x="23.600" y="400.300" width="3.900" height="3.900" fill="#000000"/>
  <rect x="27.500" y="400.300" width="3.900" height="3.900" fill="#000000"/>
  <rect x="31.400" y="400.300" width="3.900" height="3.900" fill="#000000"/>
  <rect x="8.000" y="404.200" width="3.900" height="3.900" fill="#000000"/>
  <rect x="11.900" y="404.200" width="3.900" height="3.900" fill="#000000"/>
  <rect x="15.800" y="404.200" width="3.900" height="3.900" fill="#000000"/>
  <rect x="27.500" y="404.200" width="3.900" height="3.900" fill="#000000"/>
  <rect x="31.400" y="404.200" width="3.900" height="3.900" fill="#000000"/>
  <rect x="8.000" y="408.100" width="3.900" height="3.900" fill="#000000"/>
  <rect x="11.900" y="408.100" width="3.900" height="3.900" fill="#000000"/>
  <rect x="15.800" y="408.100" width="3.900" height="3.900" fill="#000000"/>
  <rect x="19.700" y="408.100" width="3.900" height="3.900" fill="#000000"/>
  <rect x="23.600" y="408.100" width="3.900" height="3.900" fill="#000000"/>
  <rect x="27.500" y="408.100" width="3.900" height="3.900" fill="#000000"/>
  <rect x="31.400" y="408.100" width="3.900" height="3.900" fill="#000000"/>
  <text x="37.30" y="396.99" font-size="2.8" text-anchor="start" fill="#666" font-family="serif">3</text>
  <rect x="38.80" y="28.80" width="56.00" height="362.40" fill="#e8d5a0" stroke="#888" stroke-width="0.4" rx="0"/>
  <text x="66.80" y="206.50" font-size="4.2" text-anchor="middle" fill="#222" font-family="serif" dominant-baseline="middle">BLACK</text>
  <text x="66.80" y="214.50" font-size="3.5" text-anchor="middle" fill="#444" font-family="serif" dominant-baseline="middle">CAPTURED</text>
  <rect x="499.20" y="28.80" width="56.00" height="362.40" fill="#e8d5a0" stroke="#888" stroke-width="0.4" rx="0"/>
  <text x="527.20" y="206.50" font-size="4.2" text-anchor="middle" fill="#8b0000" font-family="serif" dominant-baseline="middle">RED</text>
  <text x="527.20" y="214.50" font-size="3.5" text-anchor="middle" fill="#444" font-family="serif" dominant-baseline="middle">CAPTURED</text>
  <line x1="144.82" y1="381.20" x2="144.82" y2="38.80" stroke="#1a1a1a" stroke-width="0.7"/>
  <line x1="182.87" y1="381.20" x2="182.87" y2="229.02" stroke="#1a1a1a" stroke-width="0.5"/>
  <line x1="182.87" y1="190.98" x2="182.87" y2="38.80" stroke="#1a1a1a" stroke-width="0.5"/>
  <line x1="220.91" y1="381.20" x2="220.91" y2="229.02" stroke="#1a1a1a" stroke-width="0.5"/>
  <line x1="220.91" y1="190.98" x2="220.91" y2="38.80" stroke="#1a1a1a" stroke-width="0.5"/>
  <line x1="258.96" y1="381.20" x2="258.96" y2="229.02" stroke="#1a1a1a" stroke-width="0.5"/>
  <line x1="258.96" y1="190.98" x2="258.96" y2="38.80" stroke="#1a1a1a" stroke-width="0.5"/>
  <line x1="297.00" y1="381.20" x2="297.00" y2="229.02" stroke="#1a1a1a" stroke-width="0.5"/>
  <line x1="297.00" y1="190.98" x2="297.00" y2="38.80" stroke="#1a1a1a" stroke-width="0.5"/>
  <line x1="335.04" y1="381.20" x2="335.04" y2="229.02" stroke="#1a1a1a" stroke-width="0.5"/>
  <line x1="335.04" y1="190.98" x2="335.04" y2="38.80" stroke="#1a1a1a" stroke-width="0.5"/>
  <line x1="373.09" y1="381.20" x2="373.09" y2="229.02" stroke="#1a1a1a" stroke-width="0.5"/>
  <line x1="373.09" y1="190.98" x2="373.09" y2="38.80" stroke="#1a1a1a" stroke-width="0.5"/>
  <line x1="411.13" y1="381.20" x2="411.13" y2="229.02" stroke="#1a1a1a" stroke-width="0.5"/>
  <line x1="411.13" y1="190.98" x2="411.13" y2="38.80" stroke="#1a1a1a" stroke-width="0.5"/>
  <line x1="449.18" y1="381.20" x2="449.18" y2="38.80" stroke="#1a1a1a" stroke-width="0.7"/>
  <line x1="144.82" y1="381.20" x2="449.18" y2="381.20" stroke="#1a1a1a" stroke-width="0.5"/>
  <line x1="144.82" y1="343.16" x2="449.18" y2="343.16" stroke="#1a1a1a" stroke-width="0.5"/>
  <line x1="144.82" y1="305.11" x2="449.18" y2="305.11" stroke="#1a1a1a" stroke-width="0.5"/>
  <line x1="144.82" y1="267.07" x2="449.18" y2="267.07" stroke="#1a1a1a" stroke-width="0.5"/>
  <line x1="144.82" y1="229.02" x2="449.18" y2="229.02" stroke="#1a1a1a" stroke-width="0.5"/>
  <line x1="144.82" y1="190.98" x2="449.18" y2="190.98" stroke="#1a1a1a" stroke-width="0.5"/>
  <line x1="144.82" y1="152.93" x2="449.18" y2="152.93" stroke="#1a1a1a" stroke-width="0.5"/>
  <line x1="144.82" y1="114.89" x2="449.18" y2="114.89" stroke="#1a1a1a" stroke-width="0.5"/>
  <line x1="144.82" y1="76.84" x2="449.18" y2="76.84" stroke="#1a1a1a" stroke-width="0.5"/>
  <line x1="144.82" y1="38.80" x2="449.18" y2="38.80" stroke="#1a1a1a" stroke-width="0.5"/>
  <line x1="258.96" y1="381.20" x2="335.04" y2="305.11" stroke="#1a1a1a" stroke-width="0.5"/>
  <line x1="335.04" y1="381.20" x2="258.96" y2="305.11" stroke="#1a1a1a" stroke-width="0.5"/>
  <line x1="258.96" y1="114.89" x2="335.04" y2="38.80" stroke="#1a1a1a" stroke-width="0.5"/>
  <line x1="335.04" y1="114.89" x2="258.96" y2="38.80" stroke="#1a1a1a" stroke-width="0.5"/>
  <text x="220.91" y="211.50" font-size="7" text-anchor="middle" fill="#5c3d1a" font-weight="bold" font-family="serif">楚  河</text>
  <text x="373.09" y="211.50" font-size="7" text-anchor="middle" fill="#5c3d1a" font-weight="bold" font-family="serif">漢  界</text>
  <line x1="182.07" y1="304.31" x2="180.07" y2="305.11" stroke="#1a1a1a" stroke-width="0.35"/>
  <line x1="182.87" y1="304.31" x2="182.87" y2="302.31" stroke="#1a1a1a" stroke-width="0.35"/>
  <line x1="182.07" y1="305.91" x2="180.07" y2="305.11" stroke="#1a1a1a" stroke-width="0.35"/>
  <line x1="182.87" y1="305.91" x2="182.87" y2="307.91" stroke="#1a1a1a" stroke-width="0.35"/>
  <line x1="183.67" y1="304.31" x2="185.67" y2="305.11" stroke="#1a1a1a" stroke-width="0.35"/>
  <line x1="182.87" y1="304.31" x2="182.87" y2="302.31" stroke="#1a1a1a" stroke-width="0.35"/>
  <line x1="183.67" y1="305.91" x2="185.67" y2="305.11" stroke="#1a1a1a" stroke-width="0.35"/>
  <line x1="182.87" y1="305.91" x2="182.87" y2="307.91" stroke="#1a1a1a" stroke-width="0.35"/>
  <line x1="410.33" y1="304.31" x2="408.33" y2="305.11" stroke="#1a1a1a" stroke-width="0.35"/>
  <line x1="411.13" y1="304.31" x2="411.13" y2="302.31" stroke="#1a1a1a" stroke-width="0.35"/>
  <line x1="410.33" y1="305.91" x2="408.33" y2="305.11" stroke="#1a1a1a" stroke-width="0.35"/>
  <line x1="411.13" y1="305.91" x2="411.13" y2="307.91" stroke="#1a1a1a" stroke-width="0.35"/>
  <line x1="411.93" y1="304.31" x2="413.93" y2="305.11" stroke="#1a1a1a" stroke-width="0.35"/>
  <line x1="411.13" y1="304.31" x2="411.13" y2="302.31" stroke="#1a1a1a" stroke-width="0.35"/>
  <line x1="411.93" y1="305.91" x2="413.93" y2="305.11" stroke="#1a1a1a" stroke-width="0.35"/>
  <line x1="411.13" y1="305.91" x2="411.13" y2="307.91" stroke="#1a1a1a" stroke-width="0.35"/>
  <line x1="182.07" y1="114.09" x2="180.07" y2="114.89" stroke="#1a1a1a" stroke-width="0.35"/>
  <line x1="182.87" y1="114.09" x2="182.87" y2="112.09" stroke="#1a1a1a" stroke-width="0.35"/>
  <line x1="182.07" y1="115.69" x2="180.07" y2="114.89" stroke="#1a1a1a" stroke-width="0.35"/>
  <line x1="182.87" y1="115.69" x2="182.87" y2="117.69" stroke="#1a1a1a" stroke-width="0.35"/>
  <line x1="183.67" y1="114.09" x2="185.67" y2="114.89" stroke="#1a1a1a" stroke-width="0.35"/>
  <line x1="182.87" y1="114.09" x2="182.87" y2="112.09" stroke="#1a1a1a" stroke-width="0.35"/>
  <line x1="183.67" y1="115.69" x2="185.67" y2="114.89" stroke="#1a1a1a" stroke-width="0.35"/>
  <line x1="182.87" y1="115.69" x2="182.87" y2="117.69" stroke="#1a1a1a" stroke-width="0.35"/>
  <line x1="410.33" y1="114.09" x2="408.33" y2="114.89" stroke="#1a1a1a" stroke-width="0.35"/>
  <line x1="411.13" y1="114.09" x2="411.13" y2="112.09" stroke="#1a1a1a" stroke-width="0.35"/>
  <line x1="410.33" y1="115.69" x2="408.33" y2="114.89" stroke="#1a1a1a" stroke-width="0.35"/>
  <line x1="411.13" y1="115.69" x2="411.13" y2="117.69" stroke="#1a1a1a" stroke-width="0.35"/>
  <line x1="411.93" y1="114.09" x2="413.93" y2="114.89" stroke="#1a1a1a" stroke-width="0.35"/>
  <line x1="411.13" y1="114.09" x2="411.13" y2="112.09" stroke="#1a1a1a" stroke-width="0.35"/>
  <line x1="411.93" y1="115.69" x2="413.93" y2="114.89" stroke="#1a1a1a" stroke-width="0.35"/>
  <line x1="411.13" y1="115.69" x2="411.13" y2="117.69" stroke="#1a1a1a" stroke-width="0.35"/>
  <line x1="145.52" y1="266.37" x2="147.02" y2="266.37" stroke="#1a1a1a" stroke-width="0.3"/>
  <line x1="147.02" y1="266.37" x2="147.02" y2="267.07" stroke="#1a1a1a" stroke-width="0.3"/>
  <line x1="145.52" y1="267.77" x2="147.02" y2="267.77" stroke="#1a1a1a" stroke-width="0.3"/>
  <line x1="147.02" y1="267.77" x2="147.02" y2="267.07" stroke="#1a1a1a" stroke-width="0.3"/>
  <line x1="145.52" y1="152.23" x2="147.02" y2="152.23" stroke="#1a1a1a" stroke-width="0.3"/>
  <line x1="147.02" y1="152.23" x2="147.02" y2="152.93" stroke="#1a1a1a" stroke-width="0.3"/>
  <line x1="145.52" y1="153.63" x2="147.02" y2="153.63" stroke="#1a1a1a" stroke-width="0.3"/>
  <line x1="147.02" y1="153.63" x2="147.02" y2="152.93" stroke="#1a1a1a" stroke-width="0.3"/>
  <line x1="220.21" y1="266.37" x2="218.71" y2="266.37" stroke="#1a1a1a" stroke-width="0.3"/>
  <line x1="218.71" y1="266.37" x2="218.71" y2="267.07" stroke="#1a1a1a" stroke-width="0.3"/>
  <line x1="220.21" y1="267.77" x2="218.71" y2="267.77" stroke="#1a1a1a" stroke-width="0.3"/>
  <line x1="218.71" y1="267.77" x2="218.71" y2="267.07" stroke="#1a1a1a" stroke-width="0.3"/>
  <line x1="221.61" y1="266.37" x2="223.11" y2="266.37" stroke="#1a1a1a" stroke-width="0.3"/>
  <line x1="223.11" y1="266.37" x2="223.11" y2="267.07" stroke="#1a1a1a" stroke-width="0.3"/>
  <line x1="221.61" y1="267.77" x2="223.11" y2="267.77" stroke="#1a1a1a" stroke-width="0.3"/>
  <line x1="223.11" y1="267.77" x2="223.11" y2="267.07" stroke="#1a1a1a" stroke-width="0.3"/>
  <line x1="220.21" y1="152.23" x2="218.71" y2="152.23" stroke="#1a1a1a" stroke-width="0.3"/>
  <line x1="218.71" y1="152.23" x2="218.71" y2="152.93" stroke="#1a1a1a" stroke-width="0.3"/>
  <line x1="220.21" y1="153.63" x2="218.71" y2="153.63" stroke="#1a1a1a" stroke-width="0.3"/>
  <line x1="218.71" y1="153.63" x2="218.71" y2="152.93" stroke="#1a1a1a" stroke-width="0.3"/>
  <line x1="221.61" y1="152.23" x2="223.11" y2="152.23" stroke="#1a1a1a" stroke-width="0.3"/>
  <line x1="223.11" y1="152.23" x2="223.11" y2="152.93" stroke="#1a1a1a" stroke-width="0.3"/>
  <line x1="221.61" y1="153.63" x2="223.11" y2="153.63" stroke="#1a1a1a" stroke-width="0.3"/>
  <line x1="223.11" y1="153.63" x2="223.11" y2="152.93" stroke="#1a1a1a" stroke-width="0.3"/>
  <line x1="296.30" y1="266.37" x2="294.80" y2="266.37" stroke="#1a1a1a" stroke-width="0.3"/>
  <line x1="294.80" y1="266.37" x2="294.80" y2="267.07" stroke="#1a1a1a" stroke-width="0.3"/>
  <line x1="296.30" y1="267.77" x2="294.80" y2="267.77" stroke="#1a1a1a" stroke-width="0.3"/>
  <line x1="294.80" y1="267.77" x2="294.80" y2="267.07" stroke="#1a1a1a" stroke-width="0.3"/>
  <line x1="297.70" y1="266.37" x2="299.20" y2="266.37" stroke="#1a1a1a" stroke-width="0.3"/>
  <line x1="299.20" y1="266.37" x2="299.20" y2="267.07" stroke="#1a1a1a" stroke-width="0.3"/>
  <line x1="297.70" y1="267.77" x2="299.20" y2="267.77" stroke="#1a1a1a" stroke-width="0.3"/>
  <line x1="299.20" y1="267.77" x2="299.20" y2="267.07" stroke="#1a1a1a" stroke-width="0.3"/>
  <line x1="296.30" y1="152.23" x2="294.80" y2="152.23" stroke="#1a1a1a" stroke-width="0.3"/>
  <line x1="294.80" y1="152.23" x2="294.80" y2="152.93" stroke="#1a1a1a" stroke-width="0.3"/>
  <line x1="296.30" y1="153.63" x2="294.80" y2="153.63" stroke="#1a1a1a" stroke-width="0.3"/>
  <line x1="294.80" y1="153.63" x2="294.80" y2="152.93" stroke="#1a1a1a" stroke-width="0.3"/>
  <line x1="297.70" y1="152.23" x2="299.20" y2="152.23" stroke="#1a1a1a" stroke-width="0.3"/>
  <line x1="299.20" y1="152.23" x2="299.20" y2="152.93" stroke="#1a1a1a" stroke-width="0.3"/>
  <line x1="297.70" y1="153.63" x2="299.20" y2="153.63" stroke="#1a1a1a" stroke-width="0.3"/>
  <line x1="299.20" y1="153.63" x2="299.20" y2="152.93" stroke="#1a1a1a" stroke-width="0.3"/>
  <line x1="372.39" y1="266.37" x2="370.89" y2="266.37" stroke="#1a1a1a" stroke-width="0.3"/>
  <line x1="370.89" y1="266.37" x2="370.89" y2="267.07" stroke="#1a1a1a" stroke-width="0.3"/>
  <line x1="372.39" y1="267.77" x2="370.89" y2="267.77" stroke="#1a1a1a" stroke-width="0.3"/>
  <line x1="370.89" y1="267.77" x2="370.89" y2="267.07" stroke="#1a1a1a" stroke-width="0.3"/>
  <line x1="373.79" y1="266.37" x2="375.29" y2="266.37" stroke="#1a1a1a" stroke-width="0.3"/>
  <line x1="375.29" y1="266.37" x2="375.29" y2="267.07" stroke="#1a1a1a" stroke-width="0.3"/>
  <line x1="373.79" y1="267.77" x2="375.29" y2="267.77" stroke="#1a1a1a" stroke-width="0.3"/>
  <line x1="375.29" y1="267.77" x2="375.29" y2="267.07" stroke="#1a1a1a" stroke-width="0.3"/>
  <line x1="372.39" y1="152.23" x2="370.89" y2="152.23" stroke="#1a1a1a" stroke-width="0.3"/>
  <line x1="370.89" y1="152.23" x2="370.89" y2="152.93" stroke="#1a1a1a" stroke-width="0.3"/>
  <line x1="372.39" y1="153.63" x2="370.89" y2="153.63" stroke="#1a1a1a" stroke-width="0.3"/>
  <line x1="370.89" y1="153.63" x2="370.89" y2="152.93" stroke="#1a1a1a" stroke-width="0.3"/>
  <line x1="373.79" y1="152.23" x2="375.29" y2="152.23" stroke="#1a1a1a" stroke-width="0.3"/>
  <line x1="375.29" y1="152.23" x2="375.29" y2="152.93" stroke="#1a1a1a" stroke-width="0.3"/>
  <line x1="373.79" y1="153.63" x2="375.29" y2="153.63" stroke="#1a1a1a" stroke-width="0.3"/>
  <line x1="375.29" y1="153.63" x2="375.29" y2="152.93" stroke="#1a1a1a" stroke-width="0.3"/>
  <line x1="448.48" y1="266.37" x2="446.98" y2="266.37" stroke="#1a1a1a" stroke-width="0.3"/>
  <line x1="446.98" y1="266.37" x2="446.98" y2="267.07" stroke="#1a1a1a" stroke-width="0.3"/>
  <line x1="448.48" y1="267.77" x2="446.98" y2="267.77" stroke="#1a1a1a" stroke-width="0.3"/>
  <line x1="446.98" y1="267.77" x2="446.98" y2="267.07" stroke="#1a1a1a" stroke-width="0.3"/>
  <line x1="448.48" y1="152.23" x2="446.98" y2="152.23" stroke="#1a1a1a" stroke-width="0.3"/>
  <line x1="446.98" y1="152.23" x2="446.98" y2="152.93" stroke="#1a1a1a" stroke-width="0.3"/>
  <line x1="448.48" y1="153.63" x2="446.98" y2="153.63" stroke="#1a1a1a" stroke-width="0.3"/>
  <line x1="446.98" y1="153.63" x2="446.98" y2="152.93" stroke="#1a1a1a" stroke-width="0.3"/>
  <text x="139.82" y="382.40" font-size="3.5" text-anchor="end" fill="#555" font-family="serif">0</text>
  <text x="139.82" y="344.36" font-size="3.5" text-anchor="end" fill="#555" font-family="serif">1</text>
  <text x="139.82" y="306.31" font-size="3.5" text-anchor="end" fill="#555" font-family="serif">2</text>
  <text x="139.82" y="268.27" font-size="3.5" text-anchor="end" fill="#555" font-family="serif">3</text>
  <text x="139.82" y="230.22" font-size="3.5" text-anchor="end" fill="#555" font-family="serif">4</text>
  <text x="139.82" y="192.18" font-size="3.5" text-anchor="end" fill="#555" font-family="serif">5</text>
  <text x="139.82" y="154.13" font-size="3.5" text-anchor="end" fill="#555" font-family="serif">6</text>
  <text x="139.82" y="116.09" font-size="3.5" text-anchor="end" fill="#555" font-family="serif">7</text>
  <text x="139.82" y="78.04" font-size="3.5" text-anchor="end" fill="#555" font-family="serif">8</text>
  <text x="139.82" y="40.00" font-size="3.5" text-anchor="end" fill="#555" font-family="serif">9</text>
  <rect x="144.82" y="38.80" width="304.36" height="342.40" fill="none" stroke="#1a1a1a" stroke-width="1.0" rx="0"/>
  <text x="297.00" y="34.30" font-size="2.3" text-anchor="middle" fill="#777" font-family="serif" dominant-baseline="middle">594×420 mm | 9×10 | cell 38.0 mm sq | ArUco 4×4_50 0–3 | 27 mm</text>
  <text x="297.00" y="30.00" font-size="3.6" text-anchor="middle" fill="#1a1a1a" font-weight="bold" font-family="serif">黑方  BLACK (Human)</text>
  <text x="144.82" y="388.86" font-size="3.5" text-anchor="middle" fill="#555" font-family="serif">A</text>
  <text x="182.87" y="388.86" font-size="3.5" text-anchor="middle" fill="#555" font-family="serif">B</text>
  <text x="220.91" y="388.86" font-size="3.5" text-anchor="middle" fill="#555" font-family="serif">C</text>
  <text x="258.96" y="388.86" font-size="3.5" text-anchor="middle" fill="#555" font-family="serif">D</text>
  <text x="297.00" y="388.86" font-size="3.5" text-anchor="middle" fill="#555" font-family="serif">E</text>
  <text x="335.04" y="388.86" font-size="3.5" text-anchor="middle" fill="#555" font-family="serif">F</text>
  <text x="373.09" y="388.86" font-size="3.5" text-anchor="middle" fill="#555" font-family="serif">G</text>
  <text x="411.13" y="388.86" font-size="3.5" text-anchor="middle" fill="#555" font-family="serif">H</text>
  <text x="449.18" y="388.86" font-size="3.5" text-anchor="middle" fill="#555" font-family="serif">I</text>
  <text x="297.00" y="395.81" font-size="3.6" text-anchor="middle" fill="#c0392b" font-weight="bold" font-family="serif">红方  RED (Robot)</text>
</svg>
